<mxfile host="drawio-plugin" modified="2022-03-19T19:04:55.280Z" agent="5.0 (Windows NT 6.2; Win64; x64) AppleWebKit/537.36 (KHTML, like Gecko) Chrome/89.0.4389.114 Safari/537.36" etag="B_bJZPzXGa0ev8ajLE6a" version="15.5.4" type="embed"><diagram id="Av1EcnGbNqJYg8DbEZHQ" name="Business"><mxGraphModel dx="-889.24" dy="-256.92" grid="0" gridSize="10" guides="0" tooltips="1" connect="1" arrows="1" fold="1" page="0" pageScale="1" pageWidth="4681" pageHeight="3300" math="0" shadow="1"><root><mxCell id="0"/><mxCell id="1" parent="0"/><mxCell id="2" value="SDY" style="rounded=0;whiteSpace=wrap;html=1;fontSize=16;fontStyle=1;fillColor=#b0e3e6;strokeColor=#0e8088;" parent="1" vertex="1"><mxGeometry x="2070" y="530" width="120" height="60" as="geometry"/></mxCell><mxCell id="3" value="IND" style="ellipse;whiteSpace=wrap;html=1;rounded=0;fontSize=16;fontStyle=1" parent="1" vertex="1"><mxGeometry x="1904" y="650" width="120" height="60" as="geometry"/></mxCell><mxCell id="5" value="SGP" style="ellipse;whiteSpace=wrap;html=1;rounded=0;fontSize=16;fontStyle=1" parent="1" vertex="1"><mxGeometry x="2237" y="651" width="120" height="60" as="geometry"/></mxCell><mxCell id="7" value="&lt;span style=&quot;font-size: 16px;&quot;&gt;MEX&lt;/span&gt;" style="ellipse;whiteSpace=wrap;html=1;rounded=0;fontSize=16;fontStyle=1" parent="1" vertex="1"><mxGeometry x="2403" y="651" width="120" height="60" as="geometry"/></mxCell><mxCell id="9" value="CHN" style="ellipse;whiteSpace=wrap;html=1;rounded=0;fontSize=16;fontStyle=1;fillColor=#e1d5e7;strokeColor=#9673a6;" parent="1" vertex="1"><mxGeometry x="2071" y="652" width="120" height="60" as="geometry"/></mxCell><mxCell id="11" value="DEU" style="ellipse;whiteSpace=wrap;html=1;rounded=0;fontSize=16;fontStyle=1" parent="1" vertex="1"><mxGeometry x="1406" y="653" width="120" height="60" as="geometry"/></mxCell><mxCell id="12" value="RUS" style="ellipse;whiteSpace=wrap;html=1;rounded=0;fontSize=16;fontStyle=1" parent="1" vertex="1"><mxGeometry x="2735" y="655" width="120" height="60" as="geometry"/></mxCell><mxCell id="13" value="EUR" style="ellipse;whiteSpace=wrap;html=1;rounded=0;fontSize=16;fontStyle=1" parent="1" vertex="1"><mxGeometry x="1572" y="653" width="120" height="60" as="geometry"/></mxCell><mxCell id="14" value="BHR" style="ellipse;whiteSpace=wrap;html=1;rounded=0;fontSize=16;fontStyle=1" parent="1" vertex="1"><mxGeometry x="1738" y="654" width="120" height="60" as="geometry"/></mxCell><mxCell id="16" value="BRA" style="ellipse;whiteSpace=wrap;html=1;rounded=0;fontSize=16;fontStyle=1" parent="1" vertex="1"><mxGeometry x="2569" y="654" width="120" height="60" as="geometry"/></mxCell><mxCell id="17" value="TYY" style="rounded=0;whiteSpace=wrap;html=1;fontSize=16;fontStyle=1" parent="1" vertex="1"><mxGeometry x="1890" y="390" width="120" height="60" as="geometry"/></mxCell><mxCell id="18" value="FAY" style="rounded=0;whiteSpace=wrap;html=1;fontSize=16;fontStyle=1" parent="1" vertex="1"><mxGeometry x="2250" y="390" width="120" height="60" as="geometry"/></mxCell><mxCell id="23" value="" style="endArrow=none;html=1;rounded=0;exitX=1;exitY=0.5;exitDx=0;exitDy=0;fontSize=16;fontStyle=1" parent="1" source="17" edge="1"><mxGeometry width="50" height="50" relative="1" as="geometry"><mxPoint x="2200" y="470" as="sourcePoint"/><mxPoint x="2250" y="420" as="targetPoint"/></mxGeometry></mxCell><mxCell id="29" value="" style="endArrow=none;html=1;rounded=0;fontSize=16;fontStyle=1" parent="1" edge="1"><mxGeometry width="50" height="50" relative="1" as="geometry"><mxPoint x="2010" y="420" as="sourcePoint"/><mxPoint x="2250" y="420" as="targetPoint"/><Array as="points"><mxPoint x="2130" y="530"/></Array></mxGeometry></mxCell><mxCell id="32" value="" style="shape=curlyBracket;whiteSpace=wrap;html=1;rounded=1;flipH=1;rotation=-90;fontSize=16;fontStyle=1" parent="1" vertex="1"><mxGeometry x="2120" y="-106" width="20" height="1450" as="geometry"/></mxCell><mxCell id="33" value="" style="whiteSpace=wrap;html=1;aspect=fixed;fontSize=16;fontStyle=1;" parent="1" vertex="1"><mxGeometry x="1345" y="820" width="730" height="730" as="geometry"/></mxCell><mxCell id="34" value="" style="whiteSpace=wrap;html=1;aspect=fixed;fontSize=16;fontStyle=1;fillColor=#f9f7ed;strokeColor=#36393d;" parent="1" vertex="1"><mxGeometry x="2203" y="820" width="730" height="730" as="geometry"/></mxCell><mxCell id="35" value="" style="endArrow=none;html=1;rounded=0;entryX=0.212;entryY=0.002;entryDx=0;entryDy=0;entryPerimeter=0;fontSize=16;fontStyle=1;exitX=0.77;exitY=0.001;exitDx=0;exitDy=0;exitPerimeter=0;" parent="1" target="34" edge="1" source="33"><mxGeometry width="50" height="50" relative="1" as="geometry"><mxPoint x="1980" y="820" as="sourcePoint"/><mxPoint x="2260" y="810" as="targetPoint"/><Array as="points"><mxPoint x="2137" y="744"/></Array></mxGeometry></mxCell><mxCell id="36" value="case" style="rounded=1;whiteSpace=wrap;html=1;fontSize=16;fontStyle=1;fillColor=#f8cecc;strokeColor=#b85450;" parent="1" vertex="1"><mxGeometry x="1400" y="953" width="120" height="60" as="geometry"/></mxCell><mxCell id="37" value="app" style="rounded=1;whiteSpace=wrap;html=1;fontSize=16;fontStyle=1;fillColor=#f8cecc;strokeColor=#b85450;" parent="1" vertex="1"><mxGeometry x="1400" y="1133" width="120" height="60" as="geometry"/></mxCell><mxCell id="38" value="data" style="rounded=1;whiteSpace=wrap;html=1;fontSize=16;fontStyle=1;fillColor=#f8cecc;strokeColor=#b85450;" parent="1" vertex="1"><mxGeometry x="1400" y="1343" width="120" height="60" as="geometry"/></mxCell><mxCell id="39" value="" style="line;strokeWidth=2;direction=south;html=1;fontSize=16;fontStyle=1" parent="1" vertex="1"><mxGeometry x="1848" y="861" width="10" height="660" as="geometry"/></mxCell><mxCell id="40" value="ppt" style="shape=note;whiteSpace=wrap;html=1;backgroundOutline=1;darkOpacity=0.05;fontSize=16;fontStyle=1" parent="1" vertex="1"><mxGeometry x="1603" y="834" width="80" height="100" as="geometry"/></mxCell><mxCell id="41" value="video" style="shape=note;whiteSpace=wrap;html=1;backgroundOutline=1;darkOpacity=0.05;fontSize=16;fontStyle=1" parent="1" vertex="1"><mxGeometry x="1603" y="954" width="80" height="100" as="geometry"/></mxCell><mxCell id="42" value="image" style="shape=note;whiteSpace=wrap;html=1;backgroundOutline=1;darkOpacity=0.05;fontSize=16;fontStyle=1" parent="1" vertex="1"><mxGeometry x="1603" y="1074" width="80" height="100" as="geometry"/></mxCell><mxCell id="43" value="map" style="shape=note;whiteSpace=wrap;html=1;backgroundOutline=1;darkOpacity=0.05;fontSize=16;fontStyle=1" parent="1" vertex="1"><mxGeometry x="1603" y="1194" width="80" height="100" as="geometry"/></mxCell><mxCell id="44" value="chart" style="shape=note;whiteSpace=wrap;html=1;backgroundOutline=1;darkOpacity=0.05;fontSize=16;fontStyle=1" parent="1" vertex="1"><mxGeometry x="1603" y="1314" width="80" height="100" as="geometry"/></mxCell><mxCell id="45" value="db file" style="shape=note;whiteSpace=wrap;html=1;backgroundOutline=1;darkOpacity=0.05;fontSize=16;fontStyle=1" parent="1" vertex="1"><mxGeometry x="1603" y="1434" width="80" height="100" as="geometry"/></mxCell><mxCell id="46" value="" style="line;strokeWidth=2;direction=south;html=1;fontSize=16;fontStyle=1" vertex="1" parent="1"><mxGeometry x="1563" y="859" width="10" height="660" as="geometry"/></mxCell><mxCell id="47" value="Oralce" style="shape=cylinder3;whiteSpace=wrap;html=1;boundedLbl=1;backgroundOutline=1;size=15;rounded=0;sketch=0;fontSize=16;fontStyle=1;fillColor=#f5f5f5;fontColor=#333333;strokeColor=#666666;flipH=1;flipV=0;" vertex="1" parent="1"><mxGeometry x="1882" y="914" width="150" height="100" as="geometry"/></mxCell><mxCell id="48" value="Postgre" style="shape=cylinder3;whiteSpace=wrap;html=1;boundedLbl=1;backgroundOutline=1;size=15;rounded=0;sketch=0;fontSize=16;fontStyle=1;fillColor=#f5f5f5;fontColor=#333333;strokeColor=#666666;flipH=1;flipV=0;" vertex="1" parent="1"><mxGeometry x="1886" y="1065" width="150" height="100" as="geometry"/></mxCell><mxCell id="49" value="MongoDB" style="shape=cylinder3;whiteSpace=wrap;html=1;boundedLbl=1;backgroundOutline=1;size=15;rounded=0;sketch=0;fontSize=16;fontStyle=1;fillColor=#f5f5f5;fontColor=#333333;strokeColor=#666666;flipH=1;flipV=0;" vertex="1" parent="1"><mxGeometry x="1883" y="1215" width="150" height="100" as="geometry"/></mxCell><mxCell id="50" value="MySQL" style="shape=cylinder3;whiteSpace=wrap;html=1;boundedLbl=1;backgroundOutline=1;size=15;rounded=0;sketch=0;fontSize=16;fontStyle=1;fillColor=#f5f5f5;fontColor=#333333;strokeColor=#666666;" vertex="1" parent="1"><mxGeometry x="2247" y="969" width="150" height="100" as="geometry"/></mxCell><mxCell id="51" value="Neo4j" style="shape=cylinder3;whiteSpace=wrap;html=1;boundedLbl=1;backgroundOutline=1;size=15;rounded=0;sketch=0;fontSize=16;fontStyle=1;fillColor=#f5f5f5;fontColor=#333333;strokeColor=#666666;" vertex="1" parent="1"><mxGeometry x="2482" y="1297" width="150" height="100" as="geometry"/></mxCell><mxCell id="52" value="MongoDB" style="shape=cylinder3;whiteSpace=wrap;html=1;boundedLbl=1;backgroundOutline=1;size=15;rounded=0;sketch=0;fontSize=16;fontStyle=1;fillColor=#f5f5f5;fontColor=#333333;strokeColor=#666666;" vertex="1" parent="1"><mxGeometry x="2477" y="1124" width="150" height="100" as="geometry"/></mxCell><mxCell id="53" value="" style="line;strokeWidth=2;direction=south;html=1;fontSize=16;fontStyle=1" vertex="1" parent="1"><mxGeometry x="2670" y="862" width="10" height="660" as="geometry"/></mxCell><mxCell id="54" value="" style="line;strokeWidth=2;direction=south;html=1;fontSize=16;fontStyle=1" vertex="1" parent="1"><mxGeometry x="2428" y="867" width="10" height="660" as="geometry"/></mxCell><mxCell id="55" value="ElasticSearch" style="shape=cylinder3;whiteSpace=wrap;html=1;boundedLbl=1;backgroundOutline=1;size=15;rounded=0;sketch=0;fontSize=16;fontStyle=1;fillColor=#f5f5f5;fontColor=#333333;strokeColor=#666666;" vertex="1" parent="1"><mxGeometry x="2480" y="951" width="150" height="100" as="geometry"/></mxCell><mxCell id="56" value="Hive" style="shape=cylinder3;whiteSpace=wrap;html=1;boundedLbl=1;backgroundOutline=1;size=15;rounded=0;sketch=0;fontSize=16;fontStyle=1;fillColor=#f5f5f5;fontColor=#333333;strokeColor=#666666;" vertex="1" parent="1"><mxGeometry x="2246" y="1294" width="150" height="100" as="geometry"/></mxCell><mxCell id="57" value="Postgre" style="shape=cylinder3;whiteSpace=wrap;html=1;boundedLbl=1;backgroundOutline=1;size=15;rounded=0;sketch=0;fontSize=16;fontStyle=1;fillColor=#f5f5f5;fontColor=#333333;strokeColor=#666666;" vertex="1" parent="1"><mxGeometry x="2245" y="1132" width="150" height="100" as="geometry"/></mxCell><mxCell id="58" value="搜索" style="shape=hexagon;perimeter=hexagonPerimeter2;whiteSpace=wrap;html=1;fixedSize=1;rounded=0;sketch=0;fontSize=16;fontStyle=1;fillColor=#ffe6cc;strokeColor=#d79b00;" vertex="1" parent="1"><mxGeometry x="2741" y="882" width="120" height="80" as="geometry"/></mxCell><mxCell id="59" value="推荐" style="shape=hexagon;perimeter=hexagonPerimeter2;whiteSpace=wrap;html=1;fixedSize=1;rounded=0;sketch=0;fontSize=16;fontStyle=1;fillColor=#ffe6cc;strokeColor=#d79b00;" vertex="1" parent="1"><mxGeometry x="2745" y="1055" width="120" height="80" as="geometry"/></mxCell><mxCell id="60" value="用户画像" style="shape=hexagon;perimeter=hexagonPerimeter2;whiteSpace=wrap;html=1;fixedSize=1;rounded=0;sketch=0;fontSize=16;fontStyle=1;fillColor=#ffe6cc;strokeColor=#d79b00;" vertex="1" parent="1"><mxGeometry x="2748" y="1229" width="120" height="80" as="geometry"/></mxCell><mxCell id="63" value="Redis" style="shape=cylinder3;whiteSpace=wrap;html=1;boundedLbl=1;backgroundOutline=1;size=15;rounded=0;sketch=0;fontSize=16;fontStyle=1;fillColor=#f5f5f5;fontColor=#333333;strokeColor=#666666;flipH=1;flipV=0;" vertex="1" parent="1"><mxGeometry x="1885" y="1366" width="150" height="100" as="geometry"/></mxCell><mxCell id="64" value="知识图谱" style="shape=hexagon;perimeter=hexagonPerimeter2;whiteSpace=wrap;html=1;fixedSize=1;rounded=0;sketch=0;fontSize=16;fontStyle=1;fillColor=#ffe6cc;strokeColor=#d79b00;" vertex="1" parent="1"><mxGeometry x="2752" y="1402" width="120" height="80" as="geometry"/></mxCell><mxCell id="65" value="平台" style="ellipse;whiteSpace=wrap;html=1;rounded=0;sketch=0;fontSize=16;fontStyle=1;fillColor=#bac8d3;strokeColor=#23445d;" vertex="1" parent="1"><mxGeometry x="1955" y="791" width="120" height="80" as="geometry"/></mxCell><mxCell id="66" value="中台" style="ellipse;whiteSpace=wrap;html=1;rounded=0;sketch=0;fontSize=16;fontStyle=1;fillColor=#bac8d3;strokeColor=#23445d;" vertex="1" parent="1"><mxGeometry x="2204" y="794" width="120" height="80" as="geometry"/></mxCell><mxCell id="iv7wytXuHvxCqq0a1pv--67" value="里程碑" style="shape=card;whiteSpace=wrap;html=1;rounded=0;sketch=0;fontSize=16;gradientColor=none;fontStyle=1" vertex="1" parent="1"><mxGeometry x="1729" y="1437" width="80" height="100" as="geometry"/></mxCell><mxCell id="iv7wytXuHvxCqq0a1pv--68" value="子项目" style="shape=card;whiteSpace=wrap;html=1;rounded=0;sketch=0;fontSize=16;gradientColor=none;fontStyle=1" vertex="1" parent="1"><mxGeometry x="1729" y="1317" width="80" height="100" as="geometry"/></mxCell><mxCell id="iv7wytXuHvxCqq0a1pv--69" value="运营商" style="shape=card;whiteSpace=wrap;html=1;rounded=0;sketch=0;fontSize=16;gradientColor=none;fontStyle=1" vertex="1" parent="1"><mxGeometry x="1730" y="1077" width="80" height="100" as="geometry"/></mxCell><mxCell id="iv7wytXuHvxCqq0a1pv--70" value="项目" style="shape=card;whiteSpace=wrap;html=1;rounded=0;sketch=0;fontSize=16;gradientColor=none;fontStyle=1" vertex="1" parent="1"><mxGeometry x="1728" y="1197" width="80" height="100" as="geometry"/></mxCell><mxCell id="iv7wytXuHvxCqq0a1pv--71" value="地区" style="shape=card;whiteSpace=wrap;html=1;rounded=0;sketch=0;fontSize=16;gradientColor=none;fontStyle=1" vertex="1" parent="1"><mxGeometry x="1731" y="837" width="80" height="100" as="geometry"/></mxCell><mxCell id="iv7wytXuHvxCqq0a1pv--72" value="国家" style="shape=card;whiteSpace=wrap;html=1;rounded=0;sketch=0;fontSize=16;gradientColor=none;fontStyle=1" vertex="1" parent="1"><mxGeometry x="1730" y="957" width="80" height="100" as="geometry"/></mxCell><mxCell id="KlECC5w6FTUzGydGQvSy-71" value="&lt;span&gt;合作部门&lt;/span&gt;" style="rounded=0;whiteSpace=wrap;html=1;sketch=0;fontSize=16;fillColor=#cce5ff;strokeColor=#36393d;fontStyle=1" vertex="1" parent="1"><mxGeometry x="1120" y="382" width="120" height="196" as="geometry"/></mxCell><mxCell id="KlECC5w6FTUzGydGQvSy-72" value="&lt;span&gt;全球节点&lt;/span&gt;" style="rounded=0;whiteSpace=wrap;html=1;sketch=0;fontSize=16;fillColor=#cce5ff;strokeColor=#36393d;fontStyle=1" vertex="1" parent="1"><mxGeometry x="1118" y="629" width="120" height="128" as="geometry"/></mxCell><mxCell id="KlECC5w6FTUzGydGQvSy-73" value="&lt;span&gt;数据流向&lt;/span&gt;" style="rounded=0;whiteSpace=wrap;html=1;sketch=0;fontSize=16;fillColor=#cce5ff;strokeColor=#36393d;fontStyle=1" vertex="1" parent="1"><mxGeometry x="1116" y="822" width="120" height="744" as="geometry"/></mxCell></root></mxGraphModel></diagram></mxfile>